<mxfile host="app.diagrams.net" modified="2021-08-20T07:38:50.604Z" agent="5.0 (Macintosh; Intel Mac OS X 10_15_7) AppleWebKit/537.36 (KHTML, like Gecko) Chrome/92.0.4515.159 Safari/537.36" etag="9U8Bkpa76sNWX-3F2XAL" version="14.9.8" type="github">
  <diagram id="gGT2gpRzlUsqtBOC6xT4" name="第 1 页">
    <mxGraphModel dx="1426" dy="794" grid="1" gridSize="10" guides="1" tooltips="1" connect="1" arrows="1" fold="1" page="1" pageScale="1" pageWidth="827" pageHeight="1169" math="0" shadow="0">
      <root>
        <mxCell id="0" />
        <mxCell id="1" parent="0" />
        <mxCell id="RbjBjPuDm6OWkpRvi5eB-1" value="" style="rounded=0;whiteSpace=wrap;html=1;strokeWidth=1;" vertex="1" parent="1">
          <mxGeometry x="120" y="230" width="519" height="40" as="geometry" />
        </mxCell>
        <mxCell id="RbjBjPuDm6OWkpRvi5eB-2" value="" style="endArrow=none;html=1;entryX=0.25;entryY=0;entryDx=0;entryDy=0;" edge="1" parent="1" target="RbjBjPuDm6OWkpRvi5eB-1">
          <mxGeometry width="50" height="50" relative="1" as="geometry">
            <mxPoint x="250" y="270" as="sourcePoint" />
            <mxPoint x="300" y="330" as="targetPoint" />
          </mxGeometry>
        </mxCell>
        <mxCell id="RbjBjPuDm6OWkpRvi5eB-3" value="Sequence" style="text;html=1;strokeColor=none;fillColor=none;align=center;verticalAlign=middle;whiteSpace=wrap;rounded=0;" vertex="1" parent="1">
          <mxGeometry x="160" y="240" width="40" height="20" as="geometry" />
        </mxCell>
        <mxCell id="RbjBjPuDm6OWkpRvi5eB-4" value="" style="shape=curlyBracket;whiteSpace=wrap;html=1;rounded=1;strokeWidth=1;rotation=-90;" vertex="1" parent="1">
          <mxGeometry x="172.5" y="227.5" width="20" height="125" as="geometry" />
        </mxCell>
        <mxCell id="RbjBjPuDm6OWkpRvi5eB-5" value="" style="endArrow=none;html=1;" edge="1" parent="1">
          <mxGeometry width="50" height="50" relative="1" as="geometry">
            <mxPoint x="328" y="271" as="sourcePoint" />
            <mxPoint x="328" y="228" as="targetPoint" />
          </mxGeometry>
        </mxCell>
        <mxCell id="RbjBjPuDm6OWkpRvi5eB-6" value="" style="shape=curlyBracket;whiteSpace=wrap;html=1;rounded=1;strokeWidth=1;rotation=-90;" vertex="1" parent="1">
          <mxGeometry x="279.38" y="249.38" width="20" height="81.25" as="geometry" />
        </mxCell>
        <mxCell id="RbjBjPuDm6OWkpRvi5eB-7" value="Count" style="text;html=1;strokeColor=none;fillColor=none;align=center;verticalAlign=middle;whiteSpace=wrap;rounded=0;" vertex="1" parent="1">
          <mxGeometry x="269.38" y="240" width="40" height="20" as="geometry" />
        </mxCell>
        <mxCell id="RbjBjPuDm6OWkpRvi5eB-8" value="8B" style="text;html=1;strokeColor=none;fillColor=none;align=center;verticalAlign=middle;whiteSpace=wrap;rounded=0;" vertex="1" parent="1">
          <mxGeometry x="165" y="300" width="40" height="20" as="geometry" />
        </mxCell>
        <mxCell id="RbjBjPuDm6OWkpRvi5eB-9" value="4B" style="text;html=1;strokeColor=none;fillColor=none;align=center;verticalAlign=middle;whiteSpace=wrap;rounded=0;" vertex="1" parent="1">
          <mxGeometry x="269" y="300" width="40" height="20" as="geometry" />
        </mxCell>
        <mxCell id="RbjBjPuDm6OWkpRvi5eB-10" value="" style="rounded=0;whiteSpace=wrap;html=1;strokeWidth=1;opacity=20;perimeterSpacing=1;fillColor=#b1ddf0;strokeColor=#10739e;" vertex="1" parent="1">
          <mxGeometry x="116.5" y="420" width="101" height="30" as="geometry" />
        </mxCell>
        <mxCell id="RbjBjPuDm6OWkpRvi5eB-11" value="kTypeValue" style="text;html=1;strokeColor=none;fillColor=none;align=center;verticalAlign=middle;whiteSpace=wrap;rounded=0;opacity=20;" vertex="1" parent="1">
          <mxGeometry x="146.88" y="425" width="40" height="20" as="geometry" />
        </mxCell>
        <mxCell id="RbjBjPuDm6OWkpRvi5eB-12" value="default_cf" style="text;html=1;strokeColor=none;fillColor=none;align=center;verticalAlign=middle;whiteSpace=wrap;rounded=0;opacity=20;" vertex="1" parent="1">
          <mxGeometry x="40" y="425" width="40" height="20" as="geometry" />
        </mxCell>
        <mxCell id="RbjBjPuDm6OWkpRvi5eB-13" value="kTypeColumnFamilyValue" style="rounded=0;whiteSpace=wrap;html=1;strokeWidth=1;opacity=20;perimeterSpacing=1;fillColor=#b1ddf0;strokeColor=#10739e;" vertex="1" parent="1">
          <mxGeometry x="116.38" y="500" width="161.12" height="30" as="geometry" />
        </mxCell>
        <mxCell id="RbjBjPuDm6OWkpRvi5eB-14" value="other_cf" style="text;html=1;strokeColor=none;fillColor=none;align=center;verticalAlign=middle;whiteSpace=wrap;rounded=0;opacity=20;" vertex="1" parent="1">
          <mxGeometry x="40" y="505" width="40" height="20" as="geometry" />
        </mxCell>
        <mxCell id="RbjBjPuDm6OWkpRvi5eB-15" value="cf_id" style="whiteSpace=wrap;html=1;rounded=0;strokeWidth=1;opacity=20;fillColor=#d0cee2;strokeColor=#56517e;" vertex="1" parent="1">
          <mxGeometry x="277.5" y="500" width="120" height="30" as="geometry" />
        </mxCell>
        <mxCell id="RbjBjPuDm6OWkpRvi5eB-17" value="key_size" style="whiteSpace=wrap;html=1;rounded=0;strokeWidth=1;opacity=20;fillColor=#d0cee2;strokeColor=#56517e;" vertex="1" parent="1">
          <mxGeometry x="217.5" y="405" width="120" height="30" as="geometry" />
        </mxCell>
        <mxCell id="RbjBjPuDm6OWkpRvi5eB-21" value="key_timestamp_size" style="whiteSpace=wrap;html=1;rounded=0;strokeWidth=1;opacity=20;fillColor=#fad7ac;strokeColor=#b46504;" vertex="1" parent="1">
          <mxGeometry x="217.5" y="435" width="120" height="30" as="geometry" />
        </mxCell>
        <mxCell id="RbjBjPuDm6OWkpRvi5eB-22" value="key" style="whiteSpace=wrap;html=1;rounded=0;strokeWidth=1;opacity=20;fillColor=#fad7ac;strokeColor=#b46504;" vertex="1" parent="1">
          <mxGeometry x="337.5" y="435" width="120" height="30" as="geometry" />
        </mxCell>
        <mxCell id="RbjBjPuDm6OWkpRvi5eB-23" value="key" style="whiteSpace=wrap;html=1;rounded=0;strokeWidth=1;opacity=20;fillColor=#d0cee2;strokeColor=#56517e;" vertex="1" parent="1">
          <mxGeometry x="337.5" y="405" width="120" height="30" as="geometry" />
        </mxCell>
        <mxCell id="RbjBjPuDm6OWkpRvi5eB-24" value="timestamp" style="whiteSpace=wrap;html=1;rounded=0;strokeWidth=1;opacity=20;fillColor=#fad7ac;strokeColor=#b46504;" vertex="1" parent="1">
          <mxGeometry x="457.5" y="435" width="120" height="30" as="geometry" />
        </mxCell>
        <mxCell id="RbjBjPuDm6OWkpRvi5eB-25" value="value_size" style="whiteSpace=wrap;html=1;rounded=0;strokeWidth=1;opacity=20;fillColor=#dae8fc;strokeColor=#6c8ebf;gradientColor=#7ea6e0;" vertex="1" parent="1">
          <mxGeometry x="457.5" y="405" width="120" height="30" as="geometry" />
        </mxCell>
        <mxCell id="RbjBjPuDm6OWkpRvi5eB-26" value="value" style="whiteSpace=wrap;html=1;rounded=0;strokeWidth=1;opacity=20;fillColor=#dae8fc;strokeColor=#6c8ebf;gradientColor=#7ea6e0;" vertex="1" parent="1">
          <mxGeometry x="577.5" y="405" width="120" height="30" as="geometry" />
        </mxCell>
        <mxCell id="RbjBjPuDm6OWkpRvi5eB-27" value="value_size" style="whiteSpace=wrap;html=1;rounded=0;strokeWidth=1;opacity=20;fillColor=#dae8fc;strokeColor=#6c8ebf;gradientColor=#7ea6e0;" vertex="1" parent="1">
          <mxGeometry x="577.5" y="435" width="120" height="30" as="geometry" />
        </mxCell>
        <mxCell id="RbjBjPuDm6OWkpRvi5eB-28" value="value" style="whiteSpace=wrap;html=1;rounded=0;strokeWidth=1;opacity=20;fillColor=#dae8fc;strokeColor=#6c8ebf;gradientColor=#7ea6e0;" vertex="1" parent="1">
          <mxGeometry x="697.5" y="435" width="120" height="30" as="geometry" />
        </mxCell>
        <mxCell id="RbjBjPuDm6OWkpRvi5eB-29" value="key_size" style="whiteSpace=wrap;html=1;rounded=0;strokeWidth=1;opacity=20;fillColor=#d0cee2;strokeColor=#56517e;" vertex="1" parent="1">
          <mxGeometry x="397.5" y="485" width="120" height="30" as="geometry" />
        </mxCell>
        <mxCell id="RbjBjPuDm6OWkpRvi5eB-30" value="key_timestamp_size" style="whiteSpace=wrap;html=1;rounded=0;strokeWidth=1;opacity=20;fillColor=#fad7ac;strokeColor=#b46504;" vertex="1" parent="1">
          <mxGeometry x="397.5" y="515" width="120" height="30" as="geometry" />
        </mxCell>
        <mxCell id="RbjBjPuDm6OWkpRvi5eB-31" value="key" style="whiteSpace=wrap;html=1;rounded=0;strokeWidth=1;opacity=20;fillColor=#fad7ac;strokeColor=#b46504;" vertex="1" parent="1">
          <mxGeometry x="517.5" y="515" width="120" height="30" as="geometry" />
        </mxCell>
        <mxCell id="RbjBjPuDm6OWkpRvi5eB-32" value="key" style="whiteSpace=wrap;html=1;rounded=0;strokeWidth=1;opacity=20;fillColor=#d0cee2;strokeColor=#56517e;" vertex="1" parent="1">
          <mxGeometry x="517.5" y="485" width="120" height="30" as="geometry" />
        </mxCell>
        <mxCell id="RbjBjPuDm6OWkpRvi5eB-33" value="timestamp" style="whiteSpace=wrap;html=1;rounded=0;strokeWidth=1;opacity=20;fillColor=#fad7ac;strokeColor=#b46504;" vertex="1" parent="1">
          <mxGeometry x="637.5" y="515" width="120" height="30" as="geometry" />
        </mxCell>
        <mxCell id="RbjBjPuDm6OWkpRvi5eB-34" value="value_size" style="whiteSpace=wrap;html=1;rounded=0;strokeWidth=1;opacity=20;fillColor=#dae8fc;strokeColor=#6c8ebf;gradientColor=#7ea6e0;" vertex="1" parent="1">
          <mxGeometry x="637.5" y="485" width="120" height="30" as="geometry" />
        </mxCell>
        <mxCell id="RbjBjPuDm6OWkpRvi5eB-35" value="value" style="whiteSpace=wrap;html=1;rounded=0;strokeWidth=1;opacity=20;fillColor=#dae8fc;strokeColor=#6c8ebf;gradientColor=#7ea6e0;" vertex="1" parent="1">
          <mxGeometry x="757.5" y="485" width="120" height="30" as="geometry" />
        </mxCell>
        <mxCell id="RbjBjPuDm6OWkpRvi5eB-36" value="value_size" style="whiteSpace=wrap;html=1;rounded=0;strokeWidth=1;opacity=20;fillColor=#dae8fc;strokeColor=#6c8ebf;gradientColor=#7ea6e0;" vertex="1" parent="1">
          <mxGeometry x="757.5" y="515" width="120" height="30" as="geometry" />
        </mxCell>
        <mxCell id="RbjBjPuDm6OWkpRvi5eB-37" value="value" style="whiteSpace=wrap;html=1;rounded=0;strokeWidth=1;opacity=20;fillColor=#dae8fc;strokeColor=#6c8ebf;gradientColor=#7ea6e0;" vertex="1" parent="1">
          <mxGeometry x="877.5" y="515" width="120" height="30" as="geometry" />
        </mxCell>
      </root>
    </mxGraphModel>
  </diagram>
</mxfile>
